<svg xmlns="http://www.w3.org/2000/svg" viewBox="0 0 180 50" fill="none">
  <defs>
    <linearGradient id="playGrad" x1="0%" y1="0%" x2="100%" y2="100%">
      <stop offset="0%" style="stop-color:#FF0000"/>
      <stop offset="100%" style="stop-color:#CC0000"/>
    </linearGradient>
  </defs>
  <!-- Play button -->
  <rect x="95" y="1" width="30" height="21" rx="5" fill="url(#playGrad)"/>
  <polygon points="106,5 106,18 117,11.5" fill="white"/>
  <!-- S -->
  <path d="M5,38 Q5,42 9,43 L20,45 Q27,46 27,41 Q27,37 21,36 L12,34 Q5,33 5,27 Q5,21 12,20 L21,20 Q28,20 28,25 L24,25 Q24,23 21,23 L12,23 Q9,23 9,26 Q9,29 14,30 L22,32 Q28,33 28,39 Q28,46 20,46 L10,46 Q4,46 3,42 Z" fill="#0f172a"/>
  <!-- J -->
  <path d="M38,20 L42,20 L42,38 Q42,46 35,46 L32,46 L32,43 L35,43 Q38,43 38,38 Z" fill="#0f172a"/>
  <!-- t -->
  <path d="M52,24 L52,28 L48,28 L48,31 L52,31 L52,42 Q52,46 56,46 L59,46 L59,43 L57,43 Q55,43 55,41 L55,31 L60,31 L60,28 L55,28 L55,24 Z" fill="#0f172a"/>
  <!-- u -->
  <path d="M64,28 L67,28 L67,40 Q67,43 70,43 L73,43 Q76,43 76,40 L76,28 L79,28 L79,41 Q79,46 73,46 L70,46 Q64,46 64,41 Z" fill="#0f172a"/>
  <!-- b -->
  <path d="M84,18 L87,18 L87,30 Q89,28 93,28 L95,28 Q101,28 101,34 L101,41 Q101,46 95,46 L93,46 Q89,46 87,44 L87,46 L84,46 Z M87,33 L87,41 Q87,43 91,43 L94,43 Q98,43 98,40 L98,34 Q98,31 94,31 L91,31 Q87,31 87,33 Z" fill="#0f172a"/>
  <!-- e -->
  <path d="M106,34 Q106,28 113,28 L116,28 Q122,28 122,34 L122,37 L109,37 Q109,43 115,43 L118,43 Q121,43 121,40 L124,40 Q124,46 118,46 L114,46 Q106,46 106,40 Z M109,34 L119,34 Q119,31 115,31 L113,31 Q109,31 109,34 Z" fill="#0f172a"/>
</svg>
